#Comment line ignore any data following # character 
#Hierarchical Translation and Rotation (.htr) file 
[Header]	
#Header keywords are followed by a single value 
FileType HTR		#Single word string
DataType HTRS		#Translation followed by rotation and scale data
FileVersion 1		#integer
NumSegments 84		#integer
NumFrames 2		#integer
DataFrameRate 30		#integer, data frame rate in this file
EulerRotationOrder ZYX
CalibrationUnits mm
RotationUnits Degrees
GlobalAxisofGravity Y
BoneLengthAxis Y
ScaleFactor 1.00
[SegmentNames&Hierarchy]
#CHILD	PARENT
MASTER GLOBAL
root MASTER
chest root
L_mid_tent01 root
R_mid_tent01 root
spine01 root
Bip01_Neck chest
L_humerus chest
R_humerus chest
weapon_bone chest
Bip01_Head Bip01_Neck
eye_left_bone Bip01_Head
eye_right_bone Bip01_Head
L_forearm L_humerus
L_front_hand L_forearm
L_weapon_bone L_forearm
L_front_hand01_01 L_front_hand
L_front_hand02_01 L_front_hand
L_front_hand03_01 L_front_hand
L_front_hand01_02 L_front_hand01_01
L_front_hand02_02 L_front_hand02_01
L_front_hand03_02 L_front_hand03_01
R_forearm R_humerus
R_front_hand R_forearm
R_weapon_bone R_forearm
R_front_hand01_01 R_front_hand
R_front_hand02_01 R_front_hand
R_front_hand03_01 R_front_hand
R_front_hand01_02 R_front_hand01_01
R_front_hand02_02 R_front_hand02_01
R_front_hand03_02 R_front_hand03_01
null_rope01_connect L_mid_tent01
Rope1_Seg01 null_rope01_connect
Rope1_Seg02 Rope1_Seg01
Rope1_Seg03 Rope1_Seg02
Rope1_Seg04 Rope1_Seg03
Rope1_Seg05 Rope1_Seg04
Rope1_Seg06 Rope1_Seg05
Rope1_Seg07 Rope1_Seg06
Rope1_Seg09 Rope1_Seg07
L_mid_hand01 Rope1_Seg09
L_mid_hand02 Rope1_Seg09
L_mid_hand03 Rope1_Seg09
null_rope02_connect R_mid_tent01
Rope2_Seg01 null_rope02_connect
Rope2_Seg02 Rope2_Seg01
Rope2_Seg03 Rope2_Seg02
Rope2_Seg04 Rope2_Seg03
Rope2_Seg05 Rope2_Seg04
Rope2_Seg06 Rope2_Seg05
Rope2_Seg07 Rope2_Seg06
Rope2_Seg09 Rope2_Seg07
R_mid_hand01 Rope2_Seg09
R_mid_hand02 Rope2_Seg09
R_mid_hand03 Rope2_Seg09
spine02 spine01
spine03 spine02
pelvis spine03
null_rope03_connect pelvis
null_rope04_connect pelvis
Rope3_Seg01 null_rope03_connect
Rope3_Seg02 Rope3_Seg01
Rope3_Seg03 Rope3_Seg02
Rope3_Seg04 Rope3_Seg03
Rope3_Seg05 Rope3_Seg04
Rope3_Seg06 Rope3_Seg05
Rope3_Seg07 Rope3_Seg06
Rope3_Seg08 Rope3_Seg07
Rope3_Seg09 Rope3_Seg08
R_rear_hand01 Rope3_Seg09
R_rear_hand02 Rope3_Seg09
R_rear_hand03 Rope3_Seg09
Rope4_Seg01 null_rope04_connect
Rope4_Seg02 Rope4_Seg01
Rope4_Seg03 Rope4_Seg02
Rope4_Seg04 Rope4_Seg03
Rope4_Seg05 Rope4_Seg04
Rope4_Seg06 Rope4_Seg05
Rope4_Seg07 Rope4_Seg06
Rope4_Seg08 Rope4_Seg07
Rope4_Seg09 Rope4_Seg08
L_rear_hand01 Rope4_Seg09
L_rear_hand02 Rope4_Seg09
L_rear_hand03 Rope4_Seg09
[BasePosition]
#SegmentName Tx, Ty, Tz, Rx, Ry, Rz, BoneLength
MASTER 0.000000 0.000000 0.000000 -90.000000 0.000000 0.000000 10.000000 
root 0.000000 0.000000 0.000000 0.000000 0.000000 0.000000 10.000000 
chest 0.000000 0.000000 0.000000 0.000000 0.000000 0.000000 10.000000 
L_mid_tent01 0.000000 0.000000 0.000000 0.000000 0.000000 0.000000 10.000000 
R_mid_tent01 0.000000 0.000000 0.000000 0.000000 0.000000 0.000000 10.000000 
spine01 0.000000 0.000000 0.000000 0.000000 0.000000 0.000000 10.000000 
Bip01_Neck 0.000000 0.000000 0.000000 0.000000 0.000000 0.000000 10.000000 
L_humerus 0.000000 0.000000 0.000000 0.000000 0.000000 0.000000 10.000000 
R_humerus 0.000000 0.000000 0.000000 0.000000 0.000000 0.000000 10.000000 
weapon_bone 0.000000 0.000000 0.000000 0.000000 0.000000 0.000000 10.000000 
Bip01_Head 0.000000 0.000000 0.000000 0.000000 0.000000 0.000000 10.000000 
eye_left_bone 0.000000 0.000000 0.000000 0.000000 0.000000 0.000000 10.000000 
eye_right_bone 0.000000 0.000000 0.000000 0.000000 0.000000 0.000000 10.000000 
L_forearm 0.000000 0.000000 0.000000 0.000000 0.000000 0.000000 10.000000 
L_front_hand 0.000000 0.000000 0.000000 0.000000 0.000000 0.000000 10.000000 
L_weapon_bone 0.000000 0.000000 0.000000 0.000000 0.000000 0.000000 10.000000 
L_front_hand01_01 0.000000 0.000000 0.000000 0.000000 0.000000 0.000000 10.000000 
L_front_hand02_01 0.000000 0.000000 0.000000 0.000000 0.000000 0.000000 10.000000 
L_front_hand03_01 0.000000 0.000000 0.000000 0.000000 0.000000 0.000000 10.000000 
L_front_hand01_02 0.000000 0.000000 0.000000 0.000000 0.000000 0.000000 10.000000 
L_front_hand02_02 0.000000 0.000000 0.000000 0.000000 0.000000 0.000000 10.000000 
L_front_hand03_02 0.000000 0.000000 0.000000 0.000000 0.000000 0.000000 10.000000 
R_forearm 0.000000 0.000000 0.000000 0.000000 0.000000 0.000000 10.000000 
R_front_hand 0.000000 0.000000 0.000000 0.000000 0.000000 0.000000 10.000000 
R_weapon_bone 0.000000 0.000000 0.000000 0.000000 0.000000 0.000000 10.000000 
R_front_hand01_01 0.000000 0.000000 0.000000 0.000000 0.000000 0.000000 10.000000 
R_front_hand02_01 0.000000 0.000000 0.000000 0.000000 0.000000 0.000000 10.000000 
R_front_hand03_01 0.000000 0.000000 0.000000 0.000000 0.000000 0.000000 10.000000 
R_front_hand01_02 0.000000 0.000000 0.000000 0.000000 0.000000 0.000000 10.000000 
R_front_hand02_02 0.000000 0.000000 0.000000 0.000000 0.000000 0.000000 10.000000 
R_front_hand03_02 0.000000 0.000000 0.000000 0.000000 0.000000 0.000000 10.000000 
null_rope01_connect 0.000000 0.000000 0.000000 0.000000 0.000000 0.000000 10.000000 
Rope1_Seg01 0.000000 0.000000 0.000000 0.000000 0.000000 0.000000 10.000000 
Rope1_Seg02 0.000000 0.000000 0.000000 0.000000 0.000000 0.000000 10.000000 
Rope1_Seg03 0.000000 0.000000 0.000000 0.000000 0.000000 0.000000 10.000000 
Rope1_Seg04 0.000000 0.000000 0.000000 0.000000 0.000000 0.000000 10.000000 
Rope1_Seg05 0.000000 0.000000 0.000000 0.000000 0.000000 0.000000 10.000000 
Rope1_Seg06 0.000000 0.000000 0.000000 0.000000 0.000000 0.000000 10.000000 
Rope1_Seg07 0.000000 0.000000 0.000000 0.000000 0.000000 0.000000 10.000000 
Rope1_Seg09 0.000000 0.000000 0.000000 0.000000 0.000000 0.000000 10.000000 
L_mid_hand01 0.000000 0.000000 0.000000 0.000000 0.000000 0.000000 10.000000 
L_mid_hand02 0.000000 0.000000 0.000000 0.000000 0.000000 0.000000 10.000000 
L_mid_hand03 0.000000 0.000000 0.000000 0.000000 0.000000 0.000000 10.000000 
null_rope02_connect 0.000000 0.000000 0.000000 0.000000 0.000000 0.000000 10.000000 
Rope2_Seg01 0.000000 0.000000 0.000000 0.000000 0.000000 0.000000 10.000000 
Rope2_Seg02 0.000000 0.000000 0.000000 0.000000 0.000000 0.000000 10.000000 
Rope2_Seg03 0.000000 0.000000 0.000000 0.000000 0.000000 0.000000 10.000000 
Rope2_Seg04 0.000000 0.000000 0.000000 0.000000 0.000000 0.000000 10.000000 
Rope2_Seg05 0.000000 0.000000 0.000000 0.000000 0.000000 0.000000 10.000000 
Rope2_Seg06 0.000000 0.000000 0.000000 0.000000 0.000000 0.000000 10.000000 
Rope2_Seg07 0.000000 0.000000 0.000000 0.000000 0.000000 0.000000 10.000000 
Rope2_Seg09 0.000000 0.000000 0.000000 0.000000 0.000000 0.000000 10.000000 
R_mid_hand01 0.000000 0.000000 0.000000 0.000000 0.000000 0.000000 10.000000 
R_mid_hand02 0.000000 0.000000 0.000000 0.000000 0.000000 0.000000 10.000000 
R_mid_hand03 0.000000 0.000000 0.000000 0.000000 0.000000 0.000000 10.000000 
spine02 0.000000 0.000000 0.000000 0.000000 0.000000 0.000000 10.000000 
spine03 0.000000 0.000000 0.000000 0.000000 0.000000 0.000000 10.000000 
pelvis 0.000000 0.000000 0.000000 0.000000 0.000000 0.000000 10.000000 
null_rope03_connect 0.000000 0.000000 0.000000 0.000000 0.000000 0.000000 10.000000 
null_rope04_connect 0.000000 0.000000 0.000000 0.000000 0.000000 0.000000 10.000000 
Rope3_Seg01 0.000000 0.000000 0.000000 0.000000 0.000000 0.000000 10.000000 
Rope3_Seg02 0.000000 0.000000 0.000000 0.000000 0.000000 0.000000 10.000000 
Rope3_Seg03 0.000000 0.000000 0.000000 0.000000 0.000000 0.000000 10.000000 
Rope3_Seg04 0.000000 0.000000 0.000000 0.000000 0.000000 0.000000 10.000000 
Rope3_Seg05 0.000000 0.000000 0.000000 0.000000 0.000000 0.000000 10.000000 
Rope3_Seg06 0.000000 0.000000 0.000000 0.000000 0.000000 0.000000 10.000000 
Rope3_Seg07 0.000000 0.000000 0.000000 0.000000 0.000000 0.000000 10.000000 
Rope3_Seg08 0.000000 0.000000 0.000000 0.000000 0.000000 0.000000 10.000000 
Rope3_Seg09 0.000000 0.000000 0.000000 0.000000 0.000000 0.000000 10.000000 
R_rear_hand01 0.000000 0.000000 0.000000 0.000000 0.000000 0.000000 10.000000 
R_rear_hand02 0.000000 0.000000 0.000000 0.000000 0.000000 0.000000 10.000000 
R_rear_hand03 0.000000 0.000000 0.000000 0.000000 0.000000 0.000000 10.000000 
Rope4_Seg01 0.000000 0.000000 0.000000 0.000000 0.000000 0.000000 10.000000 
Rope4_Seg02 0.000000 0.000000 0.000000 0.000000 0.000000 0.000000 10.000000 
Rope4_Seg03 0.000000 0.000000 0.000000 0.000000 0.000000 0.000000 10.000000 
Rope4_Seg04 0.000000 0.000000 0.000000 0.000000 0.000000 0.000000 10.000000 
Rope4_Seg05 0.000000 0.000000 0.000000 0.000000 0.000000 0.000000 10.000000 
Rope4_Seg06 0.000000 0.000000 0.000000 0.000000 0.000000 0.000000 10.000000 
Rope4_Seg07 0.000000 0.000000 0.000000 0.000000 0.000000 0.000000 10.000000 
Rope4_Seg08 0.000000 0.000000 0.000000 0.000000 0.000000 0.000000 10.000000 
Rope4_Seg09 0.000000 0.000000 0.000000 0.000000 0.000000 0.000000 10.000000 
L_rear_hand01 0.000000 0.000000 0.000000 0.000000 0.000000 0.000000 10.000000 
L_rear_hand02 0.000000 0.000000 0.000000 0.000000 0.000000 0.000000 10.000000 
L_rear_hand03 0.000000 0.000000 0.000000 0.000000 0.000000 0.000000 10.000000 
#Beginning of Data. Separated by tabs
#Fr	Tx	Ty	Tz	Rx	Ry	Rz	SF
[MASTER]
15 0.000000 0.000000 0.000000 0.001660 0.001660 0.001660 0.000000
16 0.000000 0.000000 0.000000 0.001660 0.001660 0.001660 0.000000
[root]
15 1.993402 -21.966444 472.421844 -96.367317 -12.242811 -85.654305 472.936462
16 0.123199 -18.799997 486.418884 -93.908600 -11.660558 -87.228119 486.782074
[chest]
15 -84.512650 -34.090519 0.000000 -8.929378 2.403177 169.022614 91.129311
16 -84.512650 -34.090519 0.000000 -8.489822 2.976978 173.006638 91.129311
[L_mid_tent01]
15 27.299547 22.177456 -249.918259 -2.887900 30.121025 67.430214 252.381134
16 27.299553 22.177446 -249.918259 -6.708598 31.493179 66.266281 252.381134
[R_mid_tent01]
15 23.228794 24.509907 226.238495 -165.186493 -24.332514 55.109852 228.744751
16 23.228794 24.509907 226.238495 -161.987503 -24.558857 54.729687 228.744751
[spine01]
15 -0.361383 -0.195265 0.000000 0.001845 0.001451 13.654368 0.410763
16 -0.361383 -0.195265 0.000000 0.001845 0.001451 13.654368 0.410763
[Bip01_Neck]
15 165.484543 71.581718 0.000119 176.643677 -1.657967 43.431911 180.302734
16 165.484543 71.581718 0.000119 176.643677 -1.657967 43.431911 180.302734
[L_humerus]
15 -13.983130 -135.272980 -120.471481 172.399155 28.128431 -158.896286 181.680161
16 -13.983130 -135.272980 -120.471481 163.087906 38.794186 -153.833267 181.680161
[R_humerus]
15 -13.983309 -135.273102 125.287651 -172.846710 -18.555590 -156.983246 184.909012
16 -13.983309 -135.273102 125.287651 -158.076691 -25.992947 -154.512833 184.909012
[weapon_bone]
15 235.964890 -300.705902 0.000000 0.000000 -89.951546 -128.212341 382.234833
16 235.964890 -300.705902 0.000000 0.000000 -89.951546 -128.212341 382.234833
[Bip01_Head]
15 199.868912 177.037445 7.680172 4.692123 5.769494 -39.957130 267.112000
16 191.089096 171.101059 7.759919 4.352605 5.519103 -37.472778 256.614166
[eye_left_bone]
15 -24.626970 125.451866 -64.772606 0.000000 -90.000000 -99.840431 143.318359
16 -24.626970 125.451866 -64.772606 0.000000 -90.000000 -99.840431 143.318359
[eye_right_bone]
15 -24.626970 125.451866 64.327362 0.000000 -89.965736 80.156380 143.117676
16 -24.626970 125.451866 64.327362 0.000000 -89.965736 80.156380 143.117676
[L_forearm]
15 322.776093 0.000000 -0.000119 0.000532 -0.002286 -116.201462 322.776093
16 322.776093 0.000000 -0.000119 0.000574 -0.002276 -118.292686 322.776093
[L_front_hand]
15 241.149185 -0.042021 -3.300071 -178.667953 -1.835447 -27.422350 241.171753
16 241.149185 -0.042021 -3.300071 -178.667953 -1.835447 -27.422350 241.171753
[L_weapon_bone]
15 156.183838 0.000000 0.000000 0.000014 0.000007 0.000001 156.183838
16 156.183838 0.000000 0.000000 0.000014 0.000007 0.000001 156.183838
[L_front_hand01_01]
15 86.095154 20.947098 -0.655860 0.405585 -0.442306 -4.620490 88.609184
16 86.095154 20.947098 -0.655860 0.337032 -0.494159 3.700273 88.609184
[L_front_hand02_01]
15 86.935165 -11.437475 24.513514 116.959450 3.630817 1.495453 91.046425
16 86.935165 -11.437475 24.513514 116.964653 -3.786660 -2.273062 91.046425
[L_front_hand03_01]
15 86.637497 -14.123976 -20.424902 -118.419884 -4.660555 -0.155069 90.126129
16 86.637497 -14.123976 -20.424902 -118.354561 2.663028 -4.108076 90.126129
[L_front_hand01_02]
15 71.020905 -0.000179 0.000030 0.001534 0.001777 -8.378850 71.020905
16 71.020905 -0.000179 0.000030 0.001370 0.001906 -18.571449 71.020905
[L_front_hand02_02]
15 71.020927 -0.000119 0.000060 0.001534 0.001777 -8.378850 71.020927
16 71.020927 -0.000119 0.000060 0.001370 0.001906 -18.571449 71.020927
[L_front_hand03_02]
15 71.020905 -0.000060 0.000060 0.001534 0.001777 -8.378850 71.020905
16 71.020905 -0.000060 0.000060 0.001370 0.001906 -18.571449 71.020905
[R_forearm]
15 322.776428 -0.000060 0.000030 0.198346 0.079090 -112.094162 322.776428
16 322.776428 -0.000060 0.000030 0.196878 0.082677 -114.174332 322.776428
[R_front_hand]
15 238.847015 -0.006795 2.210259 -2.635298 -10.645461 -26.312506 238.857239
16 238.847015 -0.006795 2.210259 -2.635298 -10.645461 -26.312506 238.857239
[R_weapon_bone]
15 155.664093 0.002503 -0.000030 0.003487 0.001180 -90.988930 155.664078
16 155.664093 0.002503 -0.000030 0.003487 0.001180 -90.988930 155.664078
[R_front_hand01_01]
15 87.624611 14.231146 22.918642 -116.960213 3.496675 -1.324139 91.683487
16 87.624611 14.231146 22.918642 -116.972237 -3.923297 2.448966 91.683487
[R_front_hand02_01]
15 89.356956 14.367283 -19.491137 118.419647 -4.257089 0.609827 92.579636
16 89.356956 14.367283 -19.491137 118.378357 3.066408 4.563783 92.579636
[R_front_hand03_01]
15 87.286232 -22.307278 -0.143439 -0.387970 -0.231462 4.232001 90.091743
16 87.286232 -22.307278 -0.143439 -0.354272 -0.288120 -4.088430 90.091743
[R_front_hand01_02]
15 71.020905 0.000060 0.000119 0.001777 0.001534 8.377220 71.020905
16 71.020905 0.000060 0.000119 0.001906 0.001370 18.569805 71.020905
[R_front_hand02_02]
15 71.020844 -0.000030 -0.000119 0.001777 0.001534 8.377220 71.020836
16 71.020844 -0.000030 -0.000119 0.001906 0.001370 18.569805 71.020836
[R_front_hand03_02]
15 71.020905 0.000000 0.000030 0.001777 0.001534 8.377220 71.020905
16 71.020905 0.000000 0.000030 0.001906 0.001370 18.569805 71.020905
[null_rope01_connect]
15 328.732483 0.000000 -0.000238 -159.109634 -55.361977 -165.080048 328.732483
16 328.732483 0.000000 -0.000238 -162.004639 -54.968464 -163.445496 328.732483
[Rope1_Seg01]
15 0.000000 0.000000 0.000000 116.451462 -37.697701 153.606461 0.000000
16 0.000000 0.000000 0.000000 112.117973 -40.462166 161.843842 0.000000
[Rope1_Seg02]
15 139.999863 -0.000179 0.000000 -2.636780 -13.333614 -8.644440 139.999863
16 139.999863 -0.000179 0.000000 -1.442165 -13.700763 -7.961924 139.999863
[Rope1_Seg03]
15 139.999924 0.000060 -0.000060 -3.733924 -18.478725 -14.383047 139.999924
16 139.999924 0.000060 -0.000060 -2.628343 -22.745745 -15.512707 139.999924
[Rope1_Seg04]
15 139.999924 -0.000060 -0.000119 -3.134544 -15.084840 -16.487980 139.999924
16 139.999924 -0.000060 -0.000119 -2.894665 -20.656258 -19.097919 139.999924
[Rope1_Seg05]
15 139.999832 0.000119 -0.000060 -2.056218 -10.171191 -9.211628 139.999832
16 139.999832 0.000119 -0.000060 -2.329704 -11.726942 -9.487405 139.999832
[Rope1_Seg06]
15 139.999954 0.000119 -0.000060 -2.944726 -16.226112 -10.308332 139.999954
16 139.999954 0.000119 -0.000060 -3.115704 -14.741027 -8.519027 139.999954
[Rope1_Seg07]
15 139.999985 0.000060 0.000000 -3.601373 -16.540863 -13.273195 139.999985
16 139.999985 0.000060 0.000000 -3.560866 -12.998648 -9.805182 139.999985
[Rope1_Seg09]
15 121.602913 0.000119 -0.000089 -89.793175 -1.359789 0.847147 121.602913
16 121.602913 0.000119 -0.000089 -89.793175 -1.359789 0.847147 121.602913
[L_mid_hand01]
15 103.859421 1.038730 8.195221 109.056198 -40.604698 -13.201401 104.187431
16 103.859421 1.038730 8.195221 109.056198 -40.604698 -13.201401 104.187431
[L_mid_hand02]
15 105.572853 -4.139662 -10.864139 -146.713593 31.476528 -37.902313 106.211075
16 105.572853 -4.139662 -10.864139 -146.713593 31.476528 -37.902313 106.211075
[L_mid_hand03]
15 104.641464 17.579376 -3.913581 -14.267233 12.322316 43.898396 106.179977
16 104.641464 17.579376 -3.913581 -14.267233 12.322316 43.898396 106.179977
[null_rope02_connect]
15 328.732849 0.000179 -0.000119 -155.151932 66.623512 -18.198301 328.732849
16 328.732849 0.000179 -0.000119 -166.026840 63.239799 -28.413322 328.732849
[Rope2_Seg01]
15 0.000076 0.000111 0.000153 -50.483803 -42.977352 45.446793 0.000204
16 0.000076 0.000111 0.000153 -49.501335 -37.287136 45.518360 0.000204
[Rope2_Seg02]
15 139.999741 -0.000060 -0.000119 1.687396 4.380862 6.479594 139.999756
16 139.999741 -0.000060 -0.000119 1.459959 4.364814 6.391167 139.999756
[Rope2_Seg03]
15 140.000107 0.000030 0.000000 2.387082 6.970559 9.827587 140.000107
16 140.000107 0.000030 0.000000 1.916518 6.521036 9.167006 140.000107
[Rope2_Seg04]
15 139.999802 0.000000 -0.000060 2.635017 13.050548 12.981212 139.999802
16 139.999802 0.000000 -0.000060 1.703025 10.980819 10.200726 139.999802
[Rope2_Seg05]
15 139.999985 -0.000060 0.000119 0.701018 12.372592 14.011424 139.999985
16 139.999985 -0.000060 0.000119 0.467777 9.901975 12.192611 139.999985
[Rope2_Seg06]
15 139.999893 -0.000030 -0.000119 0.563892 5.234617 30.091515 139.999893
16 139.999893 -0.000030 -0.000119 1.789631 6.979859 33.821484 139.999893
[Rope2_Seg07]
15 139.999893 0.000060 -0.000060 5.108665 3.637569 33.413177 139.999893
16 139.999893 0.000060 -0.000060 5.908514 6.132427 34.009605 139.999893
[Rope2_Seg09]
15 121.338966 0.000089 -0.000060 33.793236 -1.359788 -0.847141 121.338966
16 121.338966 0.000089 -0.000060 33.793236 -1.359788 -0.847141 121.338966
[R_mid_hand01]
15 104.680779 11.144459 -10.335981 -37.204067 31.906805 37.576252 105.778534
16 104.680779 11.144459 -10.335981 -37.204079 31.906813 37.576267 105.778534
[R_mid_hand02]
15 104.070427 2.443552 8.231699 70.367462 -42.427391 14.067809 104.424065
16 104.070427 2.443552 8.231699 70.367462 -42.427391 14.067811 104.424065
[R_mid_hand03]
15 106.028137 -11.221827 -5.996406 -169.893616 12.226658 -47.211018 106.788818
16 106.028137 -11.221827 -5.996406 -169.893616 12.226661 -47.211029 106.788818
[spine02]
15 129.756927 0.001550 0.000119 -1.023899 -3.926965 6.770993 129.756927
16 129.756927 0.001550 0.000119 -1.023899 -3.926965 6.770993 129.756927
[spine03]
15 78.613846 0.087372 -4.898873 1.040680 4.146419 4.212375 78.766380
16 78.613846 0.087372 -4.898873 1.040681 4.146420 4.212376 78.766380
[pelvis]
15 169.435242 0.051022 0.000000 0.019518 -0.190233 -10.721436 169.435257
16 169.435242 0.051022 0.000000 0.019518 -0.190233 -10.721436 169.435257
[null_rope03_connect]
15 -1.257226 -2.466202 137.391083 155.833145 -82.846504 -67.174644 137.418976
16 -1.257226 -2.466202 137.391083 154.997681 -85.438812 -67.074181 137.418976
[null_rope04_connect]
15 -1.259640 -2.480268 -137.844437 155.833145 -82.846504 -67.174644 137.872513
16 -1.259640 -2.480268 -137.844437 154.997681 -85.438812 -67.074181 137.872513
[Rope3_Seg01]
15 0.000000 0.000000 0.000000 171.704163 -47.220158 -17.533331 0.000000
16 0.000000 0.000000 0.000000 175.752350 -43.028969 -17.486856 0.000000
[Rope3_Seg02]
15 139.999924 -0.000119 0.000060 10.129310 -8.043793 2.289236 139.999924
16 139.999924 -0.000119 0.000060 11.198864 -7.705189 3.454627 139.999924
[Rope3_Seg03]
15 139.999924 -0.000119 0.000119 20.666039 -15.156292 7.620305 139.999924
16 139.999924 -0.000119 0.000119 19.418165 -13.213305 9.625323 139.999924
[Rope3_Seg04]
15 139.999924 0.000119 0.000000 23.164944 -23.067694 28.792349 139.999924
16 139.999924 0.000119 0.000000 18.718042 -16.781607 28.711552 139.999924
[Rope3_Seg05]
15 139.999924 -0.000238 0.000060 6.207876 -5.949006 30.053846 139.999924
16 139.999924 -0.000238 0.000060 5.273210 -4.005723 28.236113 139.999924
[Rope3_Seg06]
15 139.999893 -0.000119 -0.000060 0.773497 -2.092791 13.020291 139.999893
16 139.999893 -0.000119 -0.000060 0.320276 -3.909398 15.297659 139.999893
[Rope3_Seg07]
15 139.999771 0.000060 -0.000119 -1.486141 -4.322694 15.757541 139.999771
16 139.999771 0.000060 -0.000119 -4.178092 -8.949606 20.527868 139.999771
[Rope3_Seg08]
15 139.999985 -0.000060 0.000000 -4.590494 -4.493767 17.575802 139.999985
16 139.999985 -0.000060 0.000000 -5.754835 -6.549034 16.489847 139.999985
[Rope3_Seg09]
15 90.185997 -0.000179 -0.000060 89.793228 -1.359877 -0.847183 90.185997
16 90.185997 -0.000179 -0.000060 89.793228 -1.359877 -0.847183 90.185997
[R_rear_hand01]
15 103.366196 -6.073594 -10.757982 -164.755127 19.627697 -40.352161 104.101845
16 103.366196 -6.073594 -10.757982 -164.755127 19.627697 -40.352161 104.101845
[R_rear_hand02]
15 100.509819 12.039542 -7.992327 -30.792652 24.782448 38.141541 101.543350
16 100.509819 12.039542 -7.992327 -30.792652 24.782448 38.141541 101.543350
[R_rear_hand03]
15 101.539970 5.215704 5.435467 82.448349 -41.048256 8.840378 101.819031
16 101.539970 5.215704 5.435467 82.448349 -41.048256 8.840378 101.819031
[Rope4_Seg01]
15 -0.000002 -0.000053 -0.000060 75.564651 -35.751701 -142.337326 0.000080
16 -0.000000 -0.000051 -0.000053 75.116371 -36.533268 -140.767151 0.000074
[Rope4_Seg02]
15 139.999985 0.000060 0.000119 -23.613850 10.079049 -24.019915 139.999985
16 139.999985 0.000060 0.000119 -24.059385 9.992974 -25.570585 139.999985
[Rope4_Seg03]
15 139.999924 0.000000 -0.000238 -10.067371 10.707141 -10.544252 139.999924
16 139.999924 0.000000 -0.000238 -11.004292 11.674156 -12.095815 139.999924
[Rope4_Seg04]
15 139.999985 0.000000 0.000119 -3.338611 5.616949 -3.947498 139.999985
16 139.999985 0.000000 0.000119 -3.293193 5.825619 -4.169690 139.999985
[Rope4_Seg05]
15 139.999802 -0.000060 -0.000119 -6.999448 14.117577 -9.882092 139.999802
16 139.999802 -0.000060 -0.000119 -5.405414 11.578268 -8.086646 139.999802
[Rope4_Seg06]
15 139.999924 0.000000 0.000060 -11.974861 40.329502 -27.929766 139.999924
16 139.999924 0.000000 0.000060 -11.327001 36.839058 -25.928942 139.999924
[Rope4_Seg07]
15 139.999802 0.000000 0.000000 5.500710 22.670441 -12.408703 139.999802
16 139.999802 0.000000 0.000000 5.018315 27.034801 -15.488168 139.999802
[Rope4_Seg08]
15 139.999924 0.000000 0.000119 2.751567 7.413048 -5.265406 139.999924
16 139.999924 0.000000 0.000119 3.444304 8.616426 -6.396473 139.999924
[Rope4_Seg09]
15 90.185791 0.000060 0.000060 -135.617828 2.228885 0.850567 90.185791
16 90.185791 0.000060 0.000060 -135.617828 2.228885 0.850567 90.185791
[L_rear_hand01]
15 101.696655 -8.392275 -7.654577 -31.684452 -23.583008 144.025742 102.329041
16 101.696655 -8.392275 -7.654577 -31.684452 -23.583008 144.025742 102.329041
[L_rear_hand02]
15 102.726799 -1.568258 5.773216 82.701553 38.753956 171.553619 102.900848
16 102.726799 -1.568258 5.773216 82.701553 38.753956 171.553619 102.900848
[L_rear_hand03]
15 104.552910 9.721220 -10.420293 -163.975388 -19.004423 -142.009338 105.519653
16 104.552910 9.721220 -10.420293 -163.975403 -19.004421 -142.009338 105.519653
